<svg xmlns="http://www.w3.org/2000/svg" xmlns:xlink="http://www.w3.org/1999/xlink" width="500" zoomAndPan="magnify" viewBox="0 0 375 374.999991" height="500" preserveAspectRatio="xMidYMid meet" version="1.0"><defs><g/><clipPath id="55204e417a"><path d="M 211.582031 143.503906 L 293.332031 143.503906 L 293.332031 238.753906 L 211.582031 238.753906 Z M 211.582031 143.503906 " clip-rule="nonzero"/></clipPath><clipPath id="7c6a8ca6f5"><path d="M 242.394531 130.578125 L 276.082031 130.578125 L 276.082031 164.269531 L 242.394531 164.269531 Z M 242.394531 130.578125 " clip-rule="nonzero"/></clipPath><clipPath id="71e08c9c26"><path d="M 259.238281 164.269531 C 254.738281 164.269531 250.503906 162.519531 247.328125 159.332031 C 244.144531 156.15625 242.394531 151.921875 242.394531 147.425781 C 242.394531 142.925781 244.144531 138.691406 247.328125 135.515625 C 250.503906 132.332031 254.738281 130.578125 259.238281 130.578125 C 263.734375 130.578125 267.96875 132.332031 271.148438 135.515625 C 274.332031 138.699219 276.082031 142.925781 276.082031 147.425781 C 276.082031 151.921875 274.332031 156.15625 271.148438 159.332031 C 267.96875 162.519531 263.734375 164.269531 259.238281 164.269531 Z M 259.238281 131.589844 C 255.007812 131.589844 251.03125 133.238281 248.042969 136.226562 C 245.050781 139.21875 243.402344 143.195312 243.402344 147.425781 C 243.402344 151.652344 245.050781 155.628906 248.042969 158.621094 C 251.03125 161.609375 255.007812 163.257812 259.238281 163.257812 C 263.464844 163.257812 267.445312 161.609375 270.433594 158.621094 C 273.421875 155.628906 275.070312 151.652344 275.070312 147.425781 C 275.070312 143.195312 273.421875 139.21875 270.433594 136.226562 C 267.445312 133.238281 263.464844 131.589844 259.238281 131.589844 Z M 259.238281 131.589844 " clip-rule="nonzero"/></clipPath><clipPath id="b5ab6c8567"><path d="M 84 159.417969 L 182 159.417969 L 182 224.667969 L 84 224.667969 Z M 84 159.417969 " clip-rule="nonzero"/></clipPath><clipPath id="5b8f950c37"><path d="M 95.222656 182.652344 L 121.472656 182.652344 L 121.472656 192.402344 L 95.222656 192.402344 Z M 95.222656 182.652344 " clip-rule="nonzero"/></clipPath><clipPath id="c167f204f7"><path d="M 103 174 L 114 174 L 114 201 L 103 201 Z M 103 174 " clip-rule="nonzero"/></clipPath><clipPath id="edd8f54311"><path d="M 104.066406 200.871094 L 103.394531 174.628906 L 113.140625 174.378906 L 113.816406 200.621094 Z M 104.066406 200.871094 " clip-rule="nonzero"/></clipPath><clipPath id="e1cc273c7c"><path d="M 99.738281 205.464844 L 98.738281 166.476562 L 114.484375 166.074219 L 115.484375 205.058594 Z M 99.738281 205.464844 " clip-rule="nonzero"/></clipPath><clipPath id="a49f3bb1d3"><path d="M 152 168 L 173 168 L 173 201 L 152 201 Z M 152 168 " clip-rule="nonzero"/></clipPath><clipPath id="0726e608f0"><path d="M 161.433594 200.863281 L 152.375 171.476562 L 163.128906 168.164062 L 172.183594 197.550781 Z M 161.433594 200.863281 " clip-rule="nonzero"/></clipPath><clipPath id="af164e83e2"><path d="M 158.015625 207.382812 L 144.765625 164.378906 L 162.683594 158.859375 L 175.933594 201.863281 Z M 158.015625 207.382812 " clip-rule="nonzero"/></clipPath><clipPath id="3b57f566e9"><path d="M 140 171 L 161 171 L 161 204 L 140 204 Z M 140 171 " clip-rule="nonzero"/></clipPath><clipPath id="8dfaa4463c"><path d="M 149.46875 203.894531 L 140.414062 174.511719 L 151.164062 171.195312 L 160.21875 200.582031 Z M 149.46875 203.894531 " clip-rule="nonzero"/></clipPath><clipPath id="351116ec3b"><path d="M 146.054688 210.417969 L 132.800781 167.414062 L 150.71875 161.890625 L 163.972656 204.894531 Z M 146.054688 210.417969 " clip-rule="nonzero"/></clipPath></defs><rect x="-37.5" width="450" fill="#ffffff" y="-37.499999" height="449.999989" fill-opacity="1"/><rect x="-37.5" width="450" fill="#000000" y="-37.499999" height="449.999989" fill-opacity="1"/><g clip-path="url(#55204e417a)"><path fill="#fdfdfd" d="M 245.433594 238.855469 C 232.792969 238.855469 220.894531 233.960938 211.90625 225.058594 L 212.4375 224.523438 C 221.28125 233.285156 232.996094 238.101562 245.433594 238.101562 C 245.511719 238.101562 245.589844 238.101562 245.667969 238.101562 C 258.195312 238.039062 269.945312 233.105469 278.761719 224.203125 C 287.578125 215.304688 292.398438 203.503906 292.339844 190.976562 C 292.277344 178.449219 287.34375 166.695312 278.441406 157.878906 C 269.597656 149.117188 257.886719 144.300781 245.445312 144.300781 C 245.367188 144.300781 245.292969 144.300781 245.214844 144.300781 C 232.6875 144.363281 220.933594 149.296875 212.117188 158.199219 L 211.582031 157.667969 C 220.539062 148.621094 232.484375 143.609375 245.210938 143.542969 C 245.289062 143.542969 245.367188 143.542969 245.449219 143.542969 C 258.089844 143.542969 269.988281 148.4375 278.976562 157.339844 C 288.019531 166.296875 293.035156 178.242188 293.097656 190.972656 C 293.15625 203.703125 288.257812 215.695312 279.300781 224.738281 C 270.34375 233.78125 258.398438 238.796875 245.667969 238.855469 C 245.589844 238.855469 245.511719 238.855469 245.433594 238.855469 Z M 245.433594 238.855469 " fill-opacity="1" fill-rule="nonzero"/></g><path stroke-linecap="round" transform="matrix(0.75, 0, 0, 0.75, 86.132416, 213.327951)" fill="none" stroke-linejoin="miter" d="M 0.500529 0.500232 L 100.891161 0.500232 " stroke="#fdfdfd" stroke-width="1" stroke-opacity="1" stroke-miterlimit="4"/><g clip-path="url(#7c6a8ca6f5)"><g clip-path="url(#71e08c9c26)"><path fill="#fdfdfd" d="M 242.394531 130.578125 L 276.082031 130.578125 L 276.082031 164.269531 L 242.394531 164.269531 Z M 242.394531 130.578125 " fill-opacity="1" fill-rule="nonzero"/></g></g><g clip-path="url(#b5ab6c8567)"><path fill="#4b6bfb" d="M 178.617188 189.777344 C 174.40625 173.710938 169.550781 163.140625 158.367188 160.101562 C 156.660156 159.640625 155.054688 159.414062 153.453125 159.414062 C 150.078125 159.414062 147.363281 160.429688 144.730469 161.414062 C 142.3125 162.320312 139.605469 163.3125 135.867188 163.648438 L 133.066406 163.730469 C 133.066406 163.746094 124.613281 162.507812 121.671875 161.40625 C 119.054688 160.421875 116.34375 159.40625 112.984375 159.40625 C 111.378906 159.40625 109.769531 159.632812 108.0625 160.097656 C 96.871094 163.136719 92.015625 173.707031 87.8125 189.773438 C 82.9375 208.386719 84.285156 220.863281 91.507812 224.007812 C 92.683594 224.523438 93.925781 224.785156 95.1875 224.785156 C 101.609375 224.785156 107.515625 218.035156 111.832031 213.097656 L 113.003906 211.738281 C 116.523438 207.625 123.890625 205.265625 133.214844 205.265625 C 143.355469 205.265625 149.589844 207.261719 153.421875 211.742188 L 154.597656 213.105469 C 158.90625 218.035156 164.808594 224.78125 171.234375 224.78125 C 172.507812 224.78125 173.742188 224.519531 174.910156 224.007812 C 182.132812 220.863281 183.484375 208.386719 178.617188 189.777344 Z M 117.867188 191.035156 L 113.046875 191.035156 L 113.046875 195.703125 C 113.046875 197.417969 111.539062 198.859375 109.753906 198.859375 C 107.96875 198.859375 106.460938 197.417969 106.460938 195.703125 L 106.460938 191.035156 L 101.929688 191.035156 C 100.222656 191.035156 98.777344 189.523438 98.777344 187.742188 C 98.777344 185.953125 100.222656 184.445312 101.929688 184.445312 L 106.460938 184.445312 L 106.460938 179.769531 C 106.460938 178.0625 107.96875 176.613281 109.753906 176.613281 C 111.539062 176.613281 113.046875 178.0625 113.046875 179.769531 L 113.046875 184.445312 L 117.867188 184.445312 C 119.574219 184.445312 121.023438 185.953125 121.023438 187.742188 C 121.023438 189.527344 119.574219 191.035156 117.867188 191.035156 Z M 152.109375 196.765625 C 149.4375 196.765625 147.265625 194.59375 147.265625 191.925781 C 147.265625 189.257812 149.441406 187.085938 152.109375 187.085938 C 154.773438 187.085938 156.941406 189.257812 156.941406 191.925781 C 156.941406 194.59375 154.773438 196.765625 152.109375 196.765625 Z M 161.136719 187.738281 C 158.464844 187.738281 156.296875 185.566406 156.296875 182.898438 C 156.296875 180.230469 158.46875 178.0625 161.136719 178.0625 C 163.800781 178.0625 165.972656 180.230469 165.976562 182.898438 C 165.976562 185.566406 163.800781 187.738281 161.136719 187.738281 Z M 161.136719 187.738281 " fill-opacity="1" fill-rule="nonzero"/></g><g clip-path="url(#5b8f950c37)"><path fill="#4b6bfb" d="M 123.890625 194.238281 C 126.605469 194.238281 127.945312 194.109375 128.695312 193.359375 C 129.078125 192.976562 129.304688 192.441406 129.433594 191.625 C 129.550781 190.847656 129.578125 189.835938 129.578125 188.554688 L 129.578125 184.539062 C 129.578125 181.828125 129.449219 180.488281 128.695312 179.738281 C 128.679688 179.71875 128.660156 179.699219 128.640625 179.683594 L 128.636719 179.679688 L 127.933594 179.03125 L 127.929688 179.03125 C 127.554688 178.683594 127.03125 178.472656 126.253906 178.351562 C 125.476562 178.230469 124.464844 178.207031 123.183594 178.207031 L 96.429688 178.207031 C 93.816406 178.207031 92.480469 178.324219 91.714844 179.003906 C 91.683594 179.03125 91.65625 179.058594 91.625 179.085938 C 91.246094 179.46875 91.019531 180 90.890625 180.820312 C 90.769531 181.59375 90.746094 182.605469 90.746094 183.886719 L 90.746094 187.90625 C 90.746094 190.617188 90.875 191.953125 91.625 192.707031 C 91.628906 192.707031 91.628906 192.707031 91.628906 192.707031 C 91.644531 192.726562 91.664062 192.742188 91.683594 192.761719 L 92.386719 193.410156 L 92.390625 193.414062 C 92.765625 193.761719 93.289062 193.972656 94.066406 194.09375 C 94.84375 194.210938 95.855469 194.238281 97.136719 194.238281 Z M 123.890625 194.238281 " fill-opacity="1" fill-rule="nonzero"/><path stroke-linecap="butt" transform="matrix(0.0145871, 0, 0, 0.0145871, 90.746264, 178.206257)" fill-opacity="1" fill="#4b6bfb" fill-rule="nonzero" stroke-linejoin="miter" d="M 2223.696034 7.283334 C 2578.514521 7.283334 2606.364425 34.865451 2606.364425 389.416151 L 2606.364425 664.969528 C 2606.364425 1019.25244 2578.514521 1047.102344 2223.696034 1047.102344 L 389.619187 1047.102344 C 35.068487 1047.102344 7.218583 1019.25244 7.218583 664.969528 L 7.218583 389.416151 C 7.218583 34.865451 35.068487 7.283334 389.619187 7.283334 Z M 2223.696034 7.283334 " stroke="#000000" stroke-width="10" stroke-opacity="1" stroke-miterlimit="10"/></g><g clip-path="url(#c167f204f7)"><g clip-path="url(#edd8f54311)"><g clip-path="url(#e1cc273c7c)"><path fill="#4b6bfb" d="M 114.914062 171.914062 C 114.84375 169.203125 114.683594 167.867188 113.910156 167.136719 C 113.519531 166.761719 112.980469 166.550781 112.160156 166.445312 C 111.378906 166.34375 110.367188 166.34375 109.089844 166.378906 L 105.074219 166.480469 C 102.363281 166.550781 101.027344 166.710938 100.296875 167.484375 C 100.277344 167.503906 100.257812 167.523438 100.242188 167.542969 L 99.609375 168.265625 L 99.609375 168.269531 C 99.269531 168.652344 99.074219 169.179688 98.972656 169.960938 C 98.871094 170.742188 98.875 171.753906 98.90625 173.035156 L 99.59375 199.777344 C 99.660156 202.390625 99.8125 203.722656 100.511719 204.476562 C 100.539062 204.503906 100.566406 204.53125 100.59375 204.558594 C 100.984375 204.929688 101.527344 205.144531 102.347656 205.25 C 103.125 205.351562 104.136719 205.347656 105.417969 205.316406 L 109.433594 205.210938 C 112.144531 205.144531 113.476562 204.980469 114.210938 204.210938 L 114.210938 204.207031 C 114.230469 204.191406 114.246094 204.171875 114.261719 204.152344 C 114.261719 204.152344 114.265625 204.152344 114.265625 204.152344 L 114.894531 203.429688 L 114.898438 203.429688 C 115.234375 203.042969 115.433594 202.515625 115.535156 201.734375 C 115.632812 200.953125 115.632812 199.941406 115.601562 198.660156 Z M 114.914062 171.914062 " fill-opacity="1" fill-rule="nonzero"/><path stroke-linecap="butt" transform="matrix(-0.000374182, -0.0145823, 0.0145823, -0.000374182, 99.738461, 205.461594)" fill-opacity="1" fill="#4b6bfb" fill-rule="nonzero" stroke-linejoin="miter" d="M 2223.76344 7.224531 C 2578.431009 7.217524 2606.38106 34.990164 2606.394937 389.390033 L 2606.293621 664.763623 C 2606.300628 1019.431192 2578.534857 1047.113544 2223.867288 1047.120551 L 389.727335 1046.934785 C 35.059767 1046.941792 7.370546 1019.44372 7.363538 664.776151 L 7.197155 389.395692 C 7.183278 34.995823 34.94905 7.313471 389.616618 7.306464 Z M 2223.76344 7.224531 " stroke="#000000" stroke-width="10" stroke-opacity="1" stroke-miterlimit="10"/></g></g></g><g clip-path="url(#a49f3bb1d3)"><g clip-path="url(#0726e608f0)"><g clip-path="url(#af164e83e2)"><path fill="#4b6bfb" d="M 164.5 164.917969 C 163.570312 161.894531 162.96875 160.445312 161.871094 159.863281 C 161.3125 159.570312 160.640625 159.5 159.683594 159.640625 C 158.777344 159.773438 157.640625 160.09375 156.214844 160.53125 L 151.734375 161.914062 C 148.710938 162.84375 147.265625 163.445312 146.683594 164.542969 C 146.667969 164.570312 146.65625 164.601562 146.640625 164.628906 L 146.160156 165.640625 L 146.15625 165.640625 C 145.902344 166.183594 145.84375 166.835938 145.976562 167.742188 C 146.109375 168.652344 146.429688 169.789062 146.871094 171.214844 L 156.0625 201.042969 C 156.960938 203.957031 157.550781 205.410156 158.574219 206.03125 C 158.613281 206.054688 158.652344 206.078125 158.695312 206.097656 C 159.25 206.394531 159.925781 206.460938 160.878906 206.324219 C 161.785156 206.191406 162.921875 205.871094 164.351562 205.429688 L 168.828125 204.050781 C 171.851562 203.117188 173.300781 202.519531 173.878906 201.417969 C 173.894531 201.390625 173.90625 201.363281 173.921875 201.339844 C 173.921875 201.335938 173.921875 201.335938 173.921875 201.335938 L 174.40625 200.328125 L 174.40625 200.324219 C 174.664062 199.785156 174.71875 199.132812 174.585938 198.222656 C 174.453125 197.316406 174.132812 196.175781 173.695312 194.75 Z M 164.5 164.917969 " fill-opacity="1" fill-rule="nonzero"/><path stroke-linecap="butt" transform="matrix(-0.00501209, -0.0162635, 0.0162635, -0.00501209, 158.016645, 207.382854)" fill-opacity="1" fill="#4b6bfb" fill-rule="nonzero" stroke-linejoin="miter" d="M 2223.808327 7.228817 C 2578.549109 7.268739 2606.263261 35.02448 2606.29094 389.54591 L 2606.252688 664.786008 C 2606.280367 1019.307439 2578.524626 1047.02159 2223.783843 1046.981669 L 389.6822 1047.143291 C 34.941417 1047.10337 7.227265 1019.347629 7.199587 664.826198 L 7.305438 389.366749 C 7.21016 35.06467 35.033501 7.131166 389.774283 7.171088 Z M 2223.808327 7.228817 " stroke="#000000" stroke-width="10" stroke-opacity="1" stroke-miterlimit="10"/></g></g></g><g clip-path="url(#3b57f566e9)"><g clip-path="url(#8dfaa4463c)"><g clip-path="url(#351116ec3b)"><path fill="#4b6bfb" d="M 152.539062 167.953125 C 151.605469 164.925781 151.003906 163.480469 149.90625 162.898438 C 149.351562 162.605469 148.675781 162.535156 147.722656 162.675781 C 146.8125 162.808594 145.675781 163.128906 144.25 163.566406 L 139.769531 164.945312 C 136.746094 165.878906 135.300781 166.480469 134.71875 167.578125 C 134.707031 167.605469 134.691406 167.632812 134.679688 167.660156 L 134.675781 167.664062 L 134.195312 168.675781 C 133.9375 169.214844 133.882812 169.871094 134.011719 170.777344 C 134.144531 171.683594 134.464844 172.820312 134.90625 174.25 L 144.097656 204.078125 C 144.996094 206.992188 145.585938 208.441406 146.609375 209.066406 C 146.648438 209.089844 146.691406 209.113281 146.730469 209.132812 C 147.285156 209.425781 147.960938 209.496094 148.914062 209.355469 C 149.824219 209.222656 150.960938 208.90625 152.386719 208.464844 L 156.863281 207.085938 C 159.890625 206.152344 161.335938 205.550781 161.914062 204.453125 L 161.917969 204.453125 C 161.929688 204.425781 161.945312 204.398438 161.957031 204.371094 L 162.441406 203.363281 L 162.441406 203.359375 C 162.699219 202.820312 162.757812 202.164062 162.625 201.257812 C 162.492188 200.347656 162.171875 199.210938 161.730469 197.78125 Z M 152.539062 167.953125 " fill-opacity="1" fill-rule="nonzero"/><path stroke-linecap="butt" transform="matrix(-0.00501209, -0.0162635, 0.0162635, -0.00501209, 146.052549, 210.416631)" fill-opacity="1" fill="#4b6bfb" fill-rule="nonzero" stroke-linejoin="miter" d="M 2223.743853 7.162922 C 2578.484635 7.202843 2606.198787 34.958585 2606.226466 389.480015 L 2606.188214 664.720113 C 2606.215893 1019.241543 2578.460151 1046.955695 2223.651769 1047.135126 L 389.617725 1047.077396 C 35.096295 1047.105075 7.162791 1019.281734 7.354464 664.827903 L 7.173364 389.520205 C 7.145685 34.998775 34.901427 7.284623 389.642209 7.324544 Z M 2223.743853 7.162922 " stroke="#000000" stroke-width="10" stroke-opacity="1" stroke-miterlimit="10"/></g></g></g><g fill="#fdfdfd" fill-opacity="1"><g transform="translate(186.426643, 196.656858)"><g><path d="M 2.4375 0.0625 C 2.15625 0.0625 1.914062 -0.03125 1.71875 -0.21875 C 1.519531 -0.40625 1.421875 -0.644531 1.421875 -0.9375 L 1.421875 -9.28125 C 1.421875 -10.03125 1.539062 -10.742188 1.78125 -11.421875 C 2.019531 -12.097656 2.359375 -12.6875 2.796875 -13.1875 C 3.265625 -13.707031 3.820312 -14.109375 4.46875 -14.390625 C 5.125 -14.679688 5.859375 -14.828125 6.671875 -14.828125 C 7.503906 -14.828125 8.257812 -14.679688 8.9375 -14.390625 C 9.625 -14.109375 10.207031 -13.703125 10.6875 -13.171875 C 11.15625 -12.648438 11.507812 -12.035156 11.75 -11.328125 C 12 -10.628906 12.125 -9.878906 12.125 -9.078125 L 12.125 -0.9375 C 12.125 -0.65625 12.023438 -0.414062 11.828125 -0.21875 C 11.628906 -0.03125 11.390625 0.0625 11.109375 0.0625 C 10.816406 0.0625 10.570312 -0.03125 10.375 -0.21875 C 10.175781 -0.40625 10.078125 -0.644531 10.078125 -0.9375 L 10.078125 -4.28125 L 3.46875 -4.28125 L 3.46875 -0.9375 C 3.46875 -0.644531 3.367188 -0.40625 3.171875 -0.21875 C 2.972656 -0.03125 2.726562 0.0625 2.4375 0.0625 Z M 3.46875 -6.328125 L 10.078125 -6.328125 L 10.078125 -9.046875 C 10.078125 -10.148438 9.769531 -11.054688 9.15625 -11.765625 C 8.863281 -12.097656 8.503906 -12.351562 8.078125 -12.53125 C 7.660156 -12.707031 7.207031 -12.796875 6.71875 -12.796875 C 5.738281 -12.796875 4.953125 -12.472656 4.359375 -11.828125 C 3.765625 -11.171875 3.46875 -10.269531 3.46875 -9.125 Z M 3.46875 -6.328125 "/></g></g></g><g fill="#fdfdfd" fill-opacity="1"><g transform="translate(205.439993, 196.656858)"><g><path d="M 5.890625 0.09375 C 5.617188 0.09375 5.390625 0 5.203125 -0.1875 C 5.023438 -0.382812 4.9375 -0.625 4.9375 -0.90625 L 4.9375 -12.84375 L 1.421875 -12.84375 C 1.148438 -12.84375 0.914062 -12.9375 0.71875 -13.125 C 0.53125 -13.3125 0.4375 -13.546875 0.4375 -13.828125 C 0.4375 -14.097656 0.53125 -14.328125 0.71875 -14.515625 C 0.914062 -14.710938 1.148438 -14.8125 1.421875 -14.8125 L 10.4375 -14.8125 C 10.707031 -14.8125 10.941406 -14.710938 11.140625 -14.515625 C 11.335938 -14.304688 11.4375 -14.070312 11.4375 -13.8125 C 11.4375 -13.53125 11.335938 -13.296875 11.140625 -13.109375 C 10.941406 -12.929688 10.707031 -12.84375 10.4375 -12.84375 L 6.890625 -12.84375 L 6.890625 -0.90625 C 6.890625 -0.625 6.789062 -0.382812 6.59375 -0.1875 C 6.394531 0 6.160156 0.09375 5.890625 0.09375 Z M 5.890625 0.09375 "/></g></g></g><g fill="#fdfdfd" fill-opacity="1"><g transform="translate(222.713212, 196.656858)"><g><path d="M 2.359375 0 L 2.328125 -0.015625 C 2.085938 -0.046875 1.890625 -0.148438 1.734375 -0.328125 C 1.578125 -0.515625 1.5 -0.734375 1.5 -0.984375 L 1.5 -13.828125 C 1.5 -14.109375 1.59375 -14.34375 1.78125 -14.53125 C 1.96875 -14.71875 2.203125 -14.8125 2.484375 -14.8125 C 2.753906 -14.8125 2.988281 -14.71875 3.1875 -14.53125 C 3.382812 -14.34375 3.484375 -14.109375 3.484375 -13.828125 L 3.484375 -1.984375 L 9.71875 -1.96875 C 10 -1.96875 10.234375 -1.875 10.421875 -1.6875 C 10.609375 -1.5 10.703125 -1.265625 10.703125 -0.984375 C 10.703125 -0.691406 10.609375 -0.453125 10.421875 -0.265625 C 10.234375 -0.0859375 10 0 9.71875 0 Z M 2.359375 0 "/></g></g></g><g fill="#fdfdfd" fill-opacity="1"><g transform="translate(239.694538, 196.656858)"><g><path d="M 2.4375 0.0625 C 2.15625 0.0625 1.914062 -0.03125 1.71875 -0.21875 C 1.519531 -0.40625 1.421875 -0.644531 1.421875 -0.9375 L 1.421875 -9.28125 C 1.421875 -10.03125 1.539062 -10.742188 1.78125 -11.421875 C 2.019531 -12.097656 2.359375 -12.6875 2.796875 -13.1875 C 3.265625 -13.707031 3.820312 -14.109375 4.46875 -14.390625 C 5.125 -14.679688 5.859375 -14.828125 6.671875 -14.828125 C 7.503906 -14.828125 8.257812 -14.679688 8.9375 -14.390625 C 9.625 -14.109375 10.207031 -13.703125 10.6875 -13.171875 C 11.15625 -12.648438 11.507812 -12.035156 11.75 -11.328125 C 12 -10.628906 12.125 -9.878906 12.125 -9.078125 L 12.125 -0.9375 C 12.125 -0.65625 12.023438 -0.414062 11.828125 -0.21875 C 11.628906 -0.03125 11.390625 0.0625 11.109375 0.0625 C 10.816406 0.0625 10.570312 -0.03125 10.375 -0.21875 C 10.175781 -0.40625 10.078125 -0.644531 10.078125 -0.9375 L 10.078125 -4.28125 L 3.46875 -4.28125 L 3.46875 -0.9375 C 3.46875 -0.644531 3.367188 -0.40625 3.171875 -0.21875 C 2.972656 -0.03125 2.726562 0.0625 2.4375 0.0625 Z M 3.46875 -6.328125 L 10.078125 -6.328125 L 10.078125 -9.046875 C 10.078125 -10.148438 9.769531 -11.054688 9.15625 -11.765625 C 8.863281 -12.097656 8.503906 -12.351562 8.078125 -12.53125 C 7.660156 -12.707031 7.207031 -12.796875 6.71875 -12.796875 C 5.738281 -12.796875 4.953125 -12.472656 4.359375 -11.828125 C 3.765625 -11.171875 3.46875 -10.269531 3.46875 -9.125 Z M 3.46875 -6.328125 "/></g></g></g><g fill="#fdfdfd" fill-opacity="1"><g transform="translate(258.707888, 196.656858)"><g><path d="M 6.59375 0 L 2.578125 0 C 2.222656 0 1.941406 -0.09375 1.734375 -0.28125 C 1.523438 -0.476562 1.421875 -0.738281 1.421875 -1.0625 C 1.421875 -1.664062 1.804688 -1.96875 2.578125 -1.96875 L 6.921875 -1.96875 C 7.160156 -1.976562 7.40625 -2.039062 7.65625 -2.15625 C 7.90625 -2.28125 8.128906 -2.445312 8.328125 -2.65625 C 8.523438 -2.863281 8.679688 -3.109375 8.796875 -3.390625 C 8.910156 -3.671875 8.96875 -3.972656 8.96875 -4.296875 C 8.96875 -4.953125 8.734375 -5.503906 8.265625 -5.953125 C 8.066406 -6.148438 7.835938 -6.296875 7.578125 -6.390625 C 7.316406 -6.492188 7.054688 -6.546875 6.796875 -6.546875 L 4.984375 -6.546875 C 4.398438 -6.546875 3.847656 -6.640625 3.328125 -6.828125 C 2.816406 -7.023438 2.367188 -7.300781 1.984375 -7.65625 C 1.585938 -8.019531 1.28125 -8.445312 1.0625 -8.9375 C 0.84375 -9.425781 0.734375 -9.953125 0.734375 -10.515625 C 0.734375 -11.097656 0.84375 -11.65625 1.0625 -12.1875 C 1.289062 -12.726562 1.597656 -13.1875 1.984375 -13.5625 C 2.378906 -13.957031 2.832031 -14.257812 3.34375 -14.46875 C 3.863281 -14.6875 4.410156 -14.796875 4.984375 -14.796875 L 8.96875 -14.796875 C 9.34375 -14.796875 9.628906 -14.710938 9.828125 -14.546875 C 10.035156 -14.378906 10.140625 -14.144531 10.140625 -13.84375 C 10.140625 -13.507812 10.035156 -13.25 9.828125 -13.0625 C 9.628906 -12.882812 9.34375 -12.796875 8.96875 -12.796875 L 4.578125 -12.796875 C 4.085938 -12.773438 3.660156 -12.578125 3.296875 -12.203125 C 3.117188 -12.015625 2.976562 -11.78125 2.875 -11.5 C 2.769531 -11.226562 2.71875 -10.945312 2.71875 -10.65625 C 2.71875 -10.351562 2.769531 -10.070312 2.875 -9.8125 C 2.988281 -9.550781 3.140625 -9.320312 3.328125 -9.125 C 3.515625 -8.925781 3.722656 -8.773438 3.953125 -8.671875 C 4.179688 -8.566406 4.414062 -8.515625 4.65625 -8.515625 L 6.5625 -8.515625 C 7.15625 -8.515625 7.71875 -8.414062 8.25 -8.21875 C 8.78125 -8.019531 9.25 -7.738281 9.65625 -7.375 C 10.070312 -7 10.390625 -6.554688 10.609375 -6.046875 C 10.835938 -5.546875 10.953125 -5 10.953125 -4.40625 C 10.953125 -3.820312 10.835938 -3.257812 10.609375 -2.71875 C 10.390625 -2.1875 10.078125 -1.71875 9.671875 -1.3125 C 9.253906 -0.90625 8.785156 -0.582031 8.265625 -0.34375 C 7.742188 -0.113281 7.1875 0 6.59375 0 Z M 6.59375 0 "/></g></g></g><g fill="#fdfdfd" fill-opacity="1"><g transform="translate(275.864137, 196.656858)"><g/></g></g><g fill="#fdfdfd" fill-opacity="1"><g transform="translate(98.233957, 196.656858)"><g><path d="M 6.75 0.140625 C 6 0.140625 5.296875 0 4.640625 -0.28125 C 3.992188 -0.570312 3.425781 -0.976562 2.9375 -1.5 C 2.445312 -2 2.0625 -2.585938 1.78125 -3.265625 C 1.507812 -3.941406 1.375 -4.65625 1.375 -5.40625 L 1.375 -9.328125 C 1.375 -10.078125 1.503906 -10.789062 1.765625 -11.46875 C 2.035156 -12.144531 2.410156 -12.734375 2.890625 -13.234375 C 3.367188 -13.742188 3.929688 -14.140625 4.578125 -14.421875 C 5.222656 -14.710938 5.921875 -14.859375 6.671875 -14.859375 C 7.773438 -14.859375 8.738281 -14.597656 9.5625 -14.078125 C 10.28125 -13.617188 10.882812 -12.992188 11.375 -12.203125 C 11.519531 -11.992188 11.59375 -11.78125 11.59375 -11.5625 C 11.59375 -11.300781 11.492188 -11.070312 11.296875 -10.875 C 11.097656 -10.675781 10.859375 -10.578125 10.578125 -10.578125 C 10.242188 -10.578125 10.003906 -10.703125 9.859375 -10.953125 C 9.503906 -11.578125 9.113281 -12.035156 8.6875 -12.328125 C 8.15625 -12.679688 7.484375 -12.859375 6.671875 -12.859375 C 6.191406 -12.859375 5.742188 -12.765625 5.328125 -12.578125 C 4.921875 -12.398438 4.570312 -12.148438 4.28125 -11.828125 C 3.988281 -11.503906 3.765625 -11.125 3.609375 -10.6875 C 3.453125 -10.257812 3.375 -9.804688 3.375 -9.328125 L 3.375 -5.40625 C 3.375 -4.925781 3.457031 -4.472656 3.625 -4.046875 C 3.789062 -3.617188 4.023438 -3.242188 4.328125 -2.921875 C 4.617188 -2.585938 4.972656 -2.328125 5.390625 -2.140625 C 5.804688 -1.960938 6.257812 -1.875 6.75 -1.875 C 7.550781 -1.875 8.238281 -2.066406 8.8125 -2.453125 C 9.289062 -2.773438 9.710938 -3.253906 10.078125 -3.890625 L 10.078125 -5.9375 L 8.421875 -5.9375 C 8.140625 -5.9375 7.90625 -6.03125 7.71875 -6.21875 C 7.539062 -6.414062 7.453125 -6.648438 7.453125 -6.921875 C 7.453125 -7.191406 7.546875 -7.425781 7.734375 -7.625 C 7.921875 -7.820312 8.148438 -7.921875 8.421875 -7.921875 L 10.90625 -7.90625 C 11.1875 -7.90625 11.425781 -7.8125 11.625 -7.625 C 11.820312 -7.445312 11.921875 -7.210938 11.921875 -6.921875 L 11.921875 -4.03125 C 11.921875 -3.882812 11.90625 -3.726562 11.875 -3.5625 C 11.84375 -3.40625 11.804688 -3.285156 11.765625 -3.203125 C 11.265625 -2.160156 10.585938 -1.347656 9.734375 -0.765625 C 8.847656 -0.160156 7.851562 0.140625 6.75 0.140625 Z M 6.75 0.140625 "/></g></g></g><g fill="#fdfdfd" fill-opacity="1"><g transform="translate(116.854375, 196.656858)"><g><path d="M 2.4375 0.0625 C 2.15625 0.0625 1.914062 -0.03125 1.71875 -0.21875 C 1.519531 -0.40625 1.421875 -0.644531 1.421875 -0.9375 L 1.421875 -9.28125 C 1.421875 -10.03125 1.539062 -10.742188 1.78125 -11.421875 C 2.019531 -12.097656 2.359375 -12.6875 2.796875 -13.1875 C 3.265625 -13.707031 3.820312 -14.109375 4.46875 -14.390625 C 5.125 -14.679688 5.859375 -14.828125 6.671875 -14.828125 C 7.503906 -14.828125 8.257812 -14.679688 8.9375 -14.390625 C 9.625 -14.109375 10.207031 -13.703125 10.6875 -13.171875 C 11.15625 -12.648438 11.507812 -12.035156 11.75 -11.328125 C 12 -10.628906 12.125 -9.878906 12.125 -9.078125 L 12.125 -0.9375 C 12.125 -0.65625 12.023438 -0.414062 11.828125 -0.21875 C 11.628906 -0.03125 11.390625 0.0625 11.109375 0.0625 C 10.816406 0.0625 10.570312 -0.03125 10.375 -0.21875 C 10.175781 -0.40625 10.078125 -0.644531 10.078125 -0.9375 L 10.078125 -4.28125 L 3.46875 -4.28125 L 3.46875 -0.9375 C 3.46875 -0.644531 3.367188 -0.40625 3.171875 -0.21875 C 2.972656 -0.03125 2.726562 0.0625 2.4375 0.0625 Z M 3.46875 -6.328125 L 10.078125 -6.328125 L 10.078125 -9.046875 C 10.078125 -10.148438 9.769531 -11.054688 9.15625 -11.765625 C 8.863281 -12.097656 8.503906 -12.351562 8.078125 -12.53125 C 7.660156 -12.707031 7.207031 -12.796875 6.71875 -12.796875 C 5.738281 -12.796875 4.953125 -12.472656 4.359375 -11.828125 C 3.765625 -11.171875 3.46875 -10.269531 3.46875 -9.125 Z M 3.46875 -6.328125 "/></g></g></g><g fill="#fdfdfd" fill-opacity="1"><g transform="translate(135.867725, 196.656858)"><g><path d="M 2.328125 0 C 2.035156 0 1.789062 -0.09375 1.59375 -0.28125 C 1.40625 -0.476562 1.3125 -0.722656 1.3125 -1.015625 L 1.3125 -10.515625 C 1.3125 -11.109375 1.421875 -11.660156 1.640625 -12.171875 C 1.859375 -12.691406 2.164062 -13.148438 2.5625 -13.546875 C 2.945312 -13.941406 3.398438 -14.25 3.921875 -14.46875 C 4.441406 -14.6875 4.992188 -14.796875 5.578125 -14.796875 C 6.210938 -14.796875 6.8125 -14.660156 7.375 -14.390625 C 7.9375 -14.128906 8.425781 -13.753906 8.84375 -13.265625 C 9.238281 -13.742188 9.710938 -14.117188 10.265625 -14.390625 C 10.828125 -14.660156 11.429688 -14.796875 12.078125 -14.796875 C 12.648438 -14.796875 13.195312 -14.6875 13.71875 -14.46875 C 14.25 -14.25 14.710938 -13.941406 15.109375 -13.546875 C 15.503906 -13.148438 15.8125 -12.691406 16.03125 -12.171875 C 16.25 -11.648438 16.359375 -11.097656 16.359375 -10.515625 L 16.359375 -1.015625 C 16.359375 -0.722656 16.257812 -0.476562 16.0625 -0.28125 C 15.863281 -0.09375 15.625 0 15.34375 0 C 15.0625 0 14.816406 -0.09375 14.609375 -0.28125 C 14.410156 -0.476562 14.3125 -0.722656 14.3125 -1.015625 L 14.3125 -10.4375 C 14.3125 -11.0625 14.09375 -11.59375 13.65625 -12.03125 C 13.238281 -12.457031 12.707031 -12.671875 12.0625 -12.671875 C 11.75 -12.671875 11.457031 -12.613281 11.1875 -12.5 C 10.925781 -12.382812 10.695312 -12.222656 10.5 -12.015625 C 10.070312 -11.585938 9.859375 -11.0625 9.859375 -10.4375 L 9.859375 -1.015625 C 9.859375 -0.734375 9.757812 -0.492188 9.5625 -0.296875 C 9.363281 -0.0976562 9.117188 0 8.828125 0 C 8.546875 0 8.304688 -0.0976562 8.109375 -0.296875 C 7.910156 -0.492188 7.8125 -0.734375 7.8125 -1.015625 L 7.8125 -10.46875 C 7.8125 -10.757812 7.753906 -11.039062 7.640625 -11.3125 C 7.523438 -11.582031 7.367188 -11.820312 7.171875 -12.03125 C 6.734375 -12.457031 6.203125 -12.671875 5.578125 -12.671875 C 5.273438 -12.671875 4.984375 -12.613281 4.703125 -12.5 C 4.429688 -12.382812 4.195312 -12.226562 4 -12.03125 C 3.5625 -11.59375 3.34375 -11.0625 3.34375 -10.4375 L 3.34375 -1.015625 C 3.34375 -0.722656 3.242188 -0.476562 3.046875 -0.28125 C 2.847656 -0.09375 2.609375 0 2.328125 0 Z M 2.328125 0 "/></g></g></g><g fill="#fdfdfd" fill-opacity="1"><g transform="translate(159.001256, 196.656858)"><g><path d="M 9.71875 0 L 2.421875 0 C 2.148438 -0.0195312 1.925781 -0.125 1.75 -0.3125 C 1.582031 -0.5 1.5 -0.726562 1.5 -1 L 1.5 -13.84375 C 1.5 -14.113281 1.59375 -14.34375 1.78125 -14.53125 C 1.976562 -14.726562 2.21875 -14.828125 2.5 -14.828125 L 9.71875 -14.828125 C 10 -14.828125 10.234375 -14.726562 10.421875 -14.53125 C 10.609375 -14.34375 10.703125 -14.113281 10.703125 -13.84375 C 10.703125 -13.550781 10.609375 -13.304688 10.421875 -13.109375 C 10.234375 -12.921875 10 -12.828125 9.71875 -12.828125 L 3.484375 -12.828125 L 3.484375 -8.515625 L 8.03125 -8.515625 C 8.3125 -8.515625 8.546875 -8.421875 8.734375 -8.234375 C 8.921875 -8.046875 9.015625 -7.8125 9.015625 -7.53125 C 9.015625 -7.257812 8.921875 -7.03125 8.734375 -6.84375 C 8.546875 -6.65625 8.3125 -6.5625 8.03125 -6.5625 L 3.484375 -6.5625 L 3.484375 -1.984375 L 9.71875 -1.984375 C 10 -1.984375 10.234375 -1.882812 10.421875 -1.6875 C 10.609375 -1.5 10.703125 -1.265625 10.703125 -0.984375 C 10.703125 -0.691406 10.609375 -0.453125 10.421875 -0.265625 C 10.234375 -0.0859375 10 0 9.71875 0 Z M 9.71875 0 "/></g></g></g></svg>