<svg width="280" height="145" viewBox="0 0 280 145" fill="none" xmlns="http://www.w3.org/2000/svg">
<mask id="mask0_1019_112" style="mask-type:luminance" maskUnits="userSpaceOnUse" x="170" y="17" width="110" height="128">
<path d="M170.109 17.3385H279.109V144.339H170.109V17.3385Z" fill="white"/>
</mask>
<g mask="url(#mask0_1019_112)">
<path d="M215.245 144.474C198.391 144.474 182.526 137.948 170.542 126.078L171.25 125.365C183.042 137.047 198.661 143.469 215.245 143.469C215.349 143.469 215.453 143.469 215.557 143.469C232.26 143.385 247.927 136.807 259.682 124.938C271.438 113.073 277.865 97.3385 277.786 80.6354C277.703 63.9323 271.125 48.2604 259.255 36.5052C247.464 24.8229 231.849 18.401 215.26 18.401C215.156 18.401 215.057 18.401 214.953 18.401C198.25 18.4844 182.578 25.0625 170.823 36.9323L170.109 36.224C182.052 24.1615 197.979 17.4792 214.948 17.3906C215.052 17.3906 215.156 17.3906 215.266 17.3906C232.12 17.3906 247.984 23.9167 259.969 35.7865C272.026 47.7292 278.714 63.6563 278.797 80.6302C278.875 97.6042 272.344 113.594 260.401 125.651C248.458 137.708 232.531 144.396 215.557 144.474C215.453 144.474 215.349 144.474 215.245 144.474Z" fill="#FDFDFD"/>
</g>
<path d="M3.34375 110.938H103.734" stroke="#FDFDFD" stroke-linecap="round"/>
<mask id="mask1_1019_112" style="mask-type:luminance" maskUnits="userSpaceOnUse" x="211" y="0" width="46" height="46">
<path d="M211.193 0.104126H256.109V45.026H211.193V0.104126Z" fill="white"/>
</mask>
<g mask="url(#mask1_1019_112)">
<mask id="mask2_1019_112" style="mask-type:luminance" maskUnits="userSpaceOnUse" x="211" y="0" width="46" height="46">
<path d="M233.651 45.026C227.651 45.026 222.005 42.6927 217.771 38.4427C213.526 34.2083 211.193 28.5625 211.193 22.5677C211.193 16.5677 213.526 10.9218 217.771 6.68746C222.005 2.44267 227.651 0.104126 233.651 0.104126C239.646 0.104126 245.292 2.44267 249.531 6.68746C253.776 10.9323 256.109 16.5677 256.109 22.5677C256.109 28.5625 253.776 34.2083 249.531 38.4427C245.292 42.6927 239.646 45.026 233.651 45.026ZM233.651 1.45308C228.01 1.45308 222.708 3.651 218.724 7.63538C214.734 11.625 212.536 16.927 212.536 22.5677C212.536 28.2031 214.734 33.5052 218.724 37.4948C222.708 41.4791 228.01 43.677 233.651 43.677C239.286 43.677 244.594 41.4791 248.578 37.4948C252.562 33.5052 254.76 28.2031 254.76 22.5677C254.76 16.927 252.562 11.625 248.578 7.63538C244.594 3.651 239.286 1.45308 233.651 1.45308Z" fill="white"/>
</mask>
<g mask="url(#mask2_1019_112)">
<path d="M211.193 0.104126H256.109V45.026H211.193V0.104126Z" fill="#FDFDFD"/>
</g>
</g>
<mask id="mask3_1019_112" style="mask-type:luminance" maskUnits="userSpaceOnUse" x="0" y="38" width="131" height="88">
<path d="M0 38.5573H130.667V125.557H0V38.5573Z" fill="white"/>
</mask>
<g mask="url(#mask3_1019_112)">
<path d="M126.156 79.0364C120.542 57.6145 114.068 43.5208 99.1563 39.4687C96.8803 38.8541 94.7396 38.552 92.6042 38.552C88.1042 38.552 84.4844 39.9062 80.974 41.2187C77.75 42.427 74.1407 43.75 69.1563 44.1979L65.4219 44.3073C65.4219 44.3281 54.1511 42.677 50.2292 41.2083C46.7396 39.8958 43.125 38.5416 38.6459 38.5416C36.5053 38.5416 34.3594 38.8437 32.0834 39.4635C17.1615 43.5156 10.6875 57.6093 5.08338 79.0312C-1.41662 103.849 0.380253 120.484 10.0105 124.677C11.5782 125.365 13.2344 125.714 14.9167 125.714C23.4792 125.714 31.3542 116.714 37.1094 110.13L38.6719 108.318C43.3646 102.833 53.1875 99.6875 65.6198 99.6875C79.1407 99.6875 87.4532 102.349 92.5625 108.323L94.1303 110.141C99.875 116.714 107.745 125.708 116.313 125.708C118.01 125.708 119.656 125.359 121.214 124.677C130.844 120.484 132.646 103.849 126.156 79.0364ZM45.1563 80.7135H38.7292V86.9375C38.7292 89.2239 36.7188 91.1458 34.3386 91.1458C31.9584 91.1458 29.948 89.2239 29.948 86.9375V80.7135H23.9063C21.6303 80.7135 19.7032 78.6979 19.7032 76.3229C19.7032 73.9375 21.6303 71.927 23.9063 71.927H29.948V65.6927C29.948 63.4166 31.9584 61.4843 34.3386 61.4843C36.7188 61.4843 38.7292 63.4166 38.7292 65.6927V71.927H45.1563C47.4323 71.927 49.3646 73.9375 49.3646 76.3229C49.3646 78.7031 47.4323 80.7135 45.1563 80.7135ZM90.8125 88.3541C87.25 88.3541 84.3542 85.4583 84.3542 81.901C84.3542 78.3437 87.2553 75.4479 90.8125 75.4479C94.3646 75.4479 97.2553 78.3437 97.2553 81.901C97.2553 85.4583 94.3646 88.3541 90.8125 88.3541ZM102.849 76.3177C99.2865 76.3177 96.3959 73.4218 96.3959 69.8645C96.3959 66.3073 99.2917 63.4166 102.849 63.4166C106.401 63.4166 109.297 66.3073 109.302 69.8645C109.302 73.4218 106.401 76.3177 102.849 76.3177Z" fill="#4B6BFB"/>
</g>
<mask id="mask4_1019_112" style="mask-type:luminance" maskUnits="userSpaceOnUse" x="14" y="69" width="36" height="14">
<path d="M14.9636 69.5365H49.9636V82.5365H14.9636V69.5365Z" fill="white"/>
</mask>
<g mask="url(#mask4_1019_112)">
<path d="M53.1876 84.9844C56.8074 84.9844 58.5938 84.8125 59.5938 83.8125C60.1043 83.3021 60.4063 82.5885 60.5782 81.5C60.7345 80.4635 60.7709 79.1146 60.7709 77.4063V72.0521C60.7709 68.4375 60.599 66.651 59.5938 65.651C59.573 65.625 59.547 65.599 59.5209 65.5781L59.5157 65.5729L58.5782 64.7083H58.573C58.073 64.2448 57.3751 63.9635 56.3386 63.8021C55.3022 63.6406 53.9532 63.6094 52.2449 63.6094H16.573C13.0886 63.6094 11.3074 63.7656 10.2865 64.6719C10.2449 64.7083 10.2084 64.7448 10.1667 64.7813C9.66154 65.2917 9.35946 66 9.18758 67.0938C9.02612 68.125 8.99487 69.474 8.99487 71.1823V76.5417C8.99487 80.1563 9.16675 81.9375 10.1667 82.9427C10.172 82.9427 10.172 82.9427 10.172 82.9427C10.1928 82.9688 10.2188 82.9896 10.2449 83.0156L11.1824 83.8802L11.1876 83.8854C11.6876 84.349 12.3855 84.6302 13.422 84.7917C14.4584 84.9479 15.8074 84.9844 17.5157 84.9844H53.1876Z" fill="#4B6BFB"/>
<path d="M52.2448 63.75C59.1458 63.75 59.6875 64.2865 59.6875 71.1823V76.5416C59.6875 83.4323 59.1458 83.9739 52.2448 83.9739H16.573C9.67716 83.9739 9.1355 83.4323 9.1355 76.5416V71.1823C9.1355 64.2865 9.67716 63.75 16.573 63.75H52.2448Z" fill="#4B6BFB" stroke="black" stroke-width="0.194495" stroke-miterlimit="10"/>
</g>
<mask id="mask5_1019_112" style="mask-type:luminance" maskUnits="userSpaceOnUse" x="25" y="58" width="15" height="36">
<path d="M25.3333 58H39.9999V94H25.3333V58Z" fill="white"/>
</mask>
<g mask="url(#mask5_1019_112)">
<mask id="mask6_1019_112" style="mask-type:luminance" maskUnits="userSpaceOnUse" x="25" y="58" width="15" height="36">
<path d="M26.7552 93.8282L25.8594 58.8386L38.8542 58.5052L39.7552 93.4948L26.7552 93.8282Z" fill="white"/>
</mask>
<g mask="url(#mask6_1019_112)">
<mask id="mask7_1019_112" style="mask-type:luminance" maskUnits="userSpaceOnUse" x="19" y="47" width="23" height="53">
<path d="M20.9845 99.9532L19.6511 47.9688L40.6459 47.4324L41.9792 99.4115L20.9845 99.9532Z" fill="white"/>
</mask>
<g mask="url(#mask7_1019_112)">
<path d="M41.2186 55.2188C41.1249 51.6042 40.9113 49.823 39.8801 48.849C39.3593 48.349 38.6405 48.0678 37.5468 47.9271C36.5051 47.7917 35.1561 47.7917 33.453 47.8386L28.0988 47.974C24.4843 48.0678 22.703 48.2813 21.729 49.3126C21.703 49.3386 21.677 49.3646 21.6561 49.3907L20.8124 50.3542V50.3594C20.3593 50.8698 20.0988 51.573 19.9634 52.6146C19.828 53.6563 19.8332 55.0053 19.8749 56.7136L20.7915 92.3698C20.8801 95.8542 21.0832 97.6303 22.0155 98.6355C22.052 98.6719 22.0884 98.7084 22.1249 98.7448C22.6457 99.2396 23.3697 99.5261 24.4634 99.6667C25.4999 99.8021 26.8488 99.7969 28.5572 99.7553L33.9113 99.6146C37.5259 99.5261 39.302 99.3073 40.2811 98.2813V98.2761C40.3072 98.2553 40.328 98.2292 40.3488 98.2032H40.354L41.1926 97.2396H41.1978C41.6457 96.724 41.9113 96.0209 42.0468 94.9792C42.177 93.9376 42.177 92.5886 42.1353 90.8803L41.2186 55.2188Z" fill="#4B6BFB"/>
<path d="M20.0157 56.7085C19.8386 49.8126 20.3647 49.2553 27.2553 49.0783L32.6094 48.9428C39.5053 48.7658 40.0574 49.2918 40.2344 56.1876L41.1459 91.849C41.323 98.7448 40.8021 99.2969 33.9063 99.474L28.5522 99.6146C21.6615 99.7917 21.1095 99.2657 20.9324 92.3698L20.0157 56.7085Z" fill="#4B6BFB" stroke="black" stroke-width="0.194495" stroke-miterlimit="10"/>
</g>
</g>
</g>
<mask id="mask8_1019_112" style="mask-type:luminance" maskUnits="userSpaceOnUse" x="90" y="50" width="29" height="44">
<path d="M90.6667 50H118.667V94H90.6667V50Z" fill="white"/>
</mask>
<g mask="url(#mask8_1019_112)">
<mask id="mask9_1019_112" style="mask-type:luminance" maskUnits="userSpaceOnUse" x="91" y="50" width="27" height="44">
<path d="M103.245 93.8177L91.1667 54.6354L105.505 50.2188L117.578 89.401L103.245 93.8177Z" fill="white"/>
</mask>
<g mask="url(#mask9_1019_112)">
<mask id="mask10_1019_112" style="mask-type:luminance" maskUnits="userSpaceOnUse" x="81" y="37" width="42" height="66">
<path d="M98.6877 102.51L81.021 45.1719L104.912 37.8125L122.578 95.151L98.6877 102.51Z" fill="white"/>
</mask>
<g mask="url(#mask10_1019_112)">
<path d="M107.334 45.8906C106.094 41.8594 105.292 39.9271 103.828 39.151C103.084 38.7604 102.188 38.6667 100.912 38.8542C99.7033 39.0312 98.1877 39.4583 96.2867 40.0417L90.3127 41.8854C86.2815 43.125 84.3544 43.9271 83.5783 45.3906C83.5575 45.4271 83.5419 45.4687 83.5211 45.5052L82.8804 46.8542H82.8752C82.5367 47.5781 82.4586 48.4479 82.6356 49.6562C82.8127 50.8698 83.2398 52.3854 83.8283 54.2865L96.0836 94.0573C97.2815 97.9427 98.0679 99.8802 99.4325 100.708C99.4846 100.74 99.5367 100.771 99.594 100.797C100.334 101.193 101.235 101.281 102.505 101.099C103.714 100.922 105.229 100.495 107.136 99.9063L113.104 98.0677C117.136 96.8229 119.068 96.026 119.839 94.5573C119.86 94.5208 119.875 94.4844 119.896 94.4531C119.896 94.4479 119.896 94.4479 119.896 94.4479L120.542 93.1042V93.099C120.886 92.3802 120.959 91.5104 120.781 90.2969C120.604 89.0885 120.177 87.5677 119.594 85.6667L107.334 45.8906Z" fill="#4B6BFB"/>
<path d="M83.9845 54.2396C81.6147 46.5469 82.0314 45.7604 89.7189 43.3906L95.6876 41.5521C103.375 39.1823 104.162 39.599 106.531 47.2917L118.792 87.0625C121.162 94.7552 120.745 95.5416 113.057 97.9114L107.083 99.75C99.4012 102.12 98.6095 101.703 96.2397 94.0104L83.9845 54.2396Z" fill="#4B6BFB" stroke="black" stroke-width="0.226911" stroke-miterlimit="10"/>
</g>
</g>
</g>
<mask id="mask11_1019_112" style="mask-type:luminance" maskUnits="userSpaceOnUse" x="74" y="54" width="29" height="44">
<path d="M74.6667 54H102.667V98H74.6667V54Z" fill="white"/>
</mask>
<g mask="url(#mask11_1019_112)">
<mask id="mask12_1019_112" style="mask-type:luminance" maskUnits="userSpaceOnUse" x="75" y="54" width="27" height="44">
<path d="M87.2917 97.8593L75.2188 58.6823L89.5521 54.2604L101.625 93.4427L87.2917 97.8593Z" fill="white"/>
</mask>
<g mask="url(#mask12_1019_112)">
<mask id="mask13_1019_112" style="mask-type:luminance" maskUnits="userSpaceOnUse" x="65" y="41" width="42" height="66">
<path d="M82.7395 106.557L65.0676 49.2187L88.9583 41.8541L106.63 99.1927L82.7395 106.557Z" fill="white"/>
</mask>
<g mask="url(#mask13_1019_112)">
<path d="M91.3853 49.9375C90.1405 45.901 89.3384 43.974 87.8749 43.1979C87.1353 42.8073 86.2343 42.7135 84.9634 42.901C83.7499 43.0781 82.2343 43.5052 80.3332 44.0885L74.3593 45.9271C70.328 47.1719 68.4009 47.974 67.6249 49.4375C67.6093 49.474 67.5884 49.5104 67.5728 49.5469L67.5676 49.5521L66.927 50.901C66.5832 51.6198 66.5103 52.4948 66.6822 53.7031C66.8593 54.9115 67.2864 56.4271 67.8749 58.3333L80.1301 98.1042C81.328 101.99 82.1145 103.922 83.4791 104.755C83.5311 104.786 83.5884 104.818 83.6405 104.844C84.3801 105.234 85.2811 105.328 86.552 105.141C87.7655 104.964 89.2811 104.542 91.1822 103.953L97.1509 102.115C101.187 100.87 103.114 100.068 103.885 98.6042H103.891C103.906 98.5677 103.927 98.5313 103.943 98.4948L104.588 97.151V97.1458C104.932 96.4271 105.01 95.5521 104.833 94.3438C104.656 93.1302 104.229 91.6146 103.641 89.7083L91.3853 49.9375Z" fill="#4B6BFB"/>
<path d="M68.0311 58.2865C65.6613 50.5938 66.078 49.8073 73.7655 47.4375L79.7342 45.599C87.4217 43.2292 88.2082 43.6458 90.5832 51.3385L102.838 91.1093C105.208 98.7968 104.792 99.5885 97.104 101.953L91.1353 103.797C83.4478 106.167 82.6613 105.75 80.2915 98.0573L68.0311 58.2865Z" fill="#4B6BFB" stroke="black" stroke-width="0.226911" stroke-miterlimit="10"/>
</g>
</g>
</g>
<path d="M139.819 88.2925C139.444 88.2925 139.121 88.1675 138.86 87.9175C138.595 87.6675 138.465 87.3498 138.465 86.9592V75.8342C138.465 74.8342 138.621 73.8863 138.944 72.98C139.261 72.079 139.715 71.2925 140.298 70.6259C140.923 69.9331 141.663 69.3967 142.527 69.0217C143.402 68.6363 144.381 68.4384 145.465 68.4384C146.574 68.4384 147.579 68.6363 148.485 69.0217C149.402 69.3967 150.178 69.9384 150.819 70.6467C151.444 71.3446 151.913 72.1623 152.235 73.105C152.569 74.0373 152.735 75.0373 152.735 76.105V86.9592C152.735 87.3342 152.6 87.6571 152.34 87.9175C152.074 88.1675 151.756 88.2925 151.381 88.2925C150.991 88.2925 150.663 88.1675 150.402 87.9175C150.136 87.6675 150.006 87.3498 150.006 86.9592V82.5009H141.194V86.9592C141.194 87.3498 141.058 87.6675 140.798 87.9175C140.532 88.1675 140.204 88.2925 139.819 88.2925ZM141.194 79.7717H150.006V76.1467C150.006 74.6779 149.595 73.4696 148.777 72.5217C148.386 72.079 147.907 71.7404 147.34 71.5009C146.782 71.2665 146.178 71.1467 145.527 71.1467C144.22 71.1467 143.173 71.579 142.381 72.4384C141.59 73.3134 141.194 74.5165 141.194 76.0425V79.7717Z" fill="#FDFDFD"/>
<path d="M169.774 88.3341C169.41 88.3341 169.108 88.2091 168.858 87.9591C168.618 87.6987 168.503 87.3758 168.503 87.0008V71.0841H163.816C163.451 71.0841 163.139 70.9591 162.878 70.7091C162.628 70.4591 162.503 70.1466 162.503 69.7716C162.503 69.4122 162.628 69.1049 162.878 68.8549C163.139 68.5945 163.451 68.4591 163.816 68.4591H175.837C176.196 68.4591 176.509 68.5945 176.774 68.8549C177.035 69.1362 177.17 69.4487 177.17 69.7924C177.17 70.1674 177.035 70.4799 176.774 70.7299C176.509 70.9695 176.196 71.0841 175.837 71.0841H171.108V87.0008C171.108 87.3758 170.972 87.6987 170.712 87.9591C170.446 88.2091 170.134 88.3341 169.774 88.3341Z" fill="#FDFDFD"/>
<path d="M188.097 88.2091L188.055 88.1883C187.732 88.1466 187.472 88.0112 187.263 87.7716C187.055 87.5216 186.951 87.2299 186.951 86.8966V69.7716C186.951 69.3966 187.076 69.0841 187.326 68.8341C187.576 68.5841 187.888 68.4591 188.263 68.4591C188.623 68.4591 188.935 68.5841 189.201 68.8341C189.461 69.0841 189.597 69.3966 189.597 69.7716V85.5633L197.909 85.5841C198.284 85.5841 198.597 85.7091 198.847 85.9591C199.097 86.2091 199.222 86.5216 199.222 86.8966C199.222 87.2872 199.097 87.6049 198.847 87.8549C198.597 88.0945 198.284 88.2091 197.909 88.2091H188.097Z" fill="#FDFDFD"/>
<path d="M210.843 88.2925C210.468 88.2925 210.145 88.1675 209.884 87.9175C209.619 87.6675 209.489 87.3498 209.489 86.9592V75.8342C209.489 74.8342 209.645 73.8863 209.968 72.98C210.285 72.079 210.739 71.2925 211.322 70.6259C211.947 69.9331 212.686 69.3967 213.551 69.0217C214.426 68.6363 215.405 68.4384 216.489 68.4384C217.598 68.4384 218.603 68.6363 219.509 69.0217C220.426 69.3967 221.202 69.9384 221.843 70.6467C222.468 71.3446 222.936 72.1623 223.259 73.105C223.593 74.0373 223.759 75.0373 223.759 76.105V86.9592C223.759 87.3342 223.624 87.6571 223.364 87.9175C223.098 88.1675 222.78 88.2925 222.405 88.2925C222.015 88.2925 221.686 88.1675 221.426 87.9175C221.16 87.6675 221.03 87.3498 221.03 86.9592V82.5009H212.218V86.9592C212.218 87.3498 212.082 87.6675 211.822 87.9175C211.556 88.1675 211.228 88.2925 210.843 88.2925ZM212.218 79.7717H221.03V76.1467C221.03 74.6779 220.619 73.4696 219.801 72.5217C219.41 72.079 218.931 71.7404 218.364 71.5009C217.806 71.2665 217.202 71.1467 216.551 71.1467C215.244 71.1467 214.197 71.579 213.405 72.4384C212.614 73.3134 212.218 74.5165 212.218 76.0425V79.7717Z" fill="#FDFDFD"/>
<path d="M241.736 88.2091H236.381C235.907 88.2091 235.532 88.0841 235.256 87.8341C234.975 87.5737 234.84 87.2248 234.84 86.7925C234.84 85.9904 235.35 85.5841 236.381 85.5841H242.173C242.491 85.5737 242.819 85.4904 243.152 85.3341C243.486 85.1675 243.782 84.9487 244.048 84.6675C244.309 84.3914 244.517 84.0633 244.673 83.6883C244.824 83.3133 244.902 82.9123 244.902 82.48C244.902 81.605 244.59 80.8706 243.965 80.2716C243.699 80.0112 243.392 79.8133 243.048 79.6883C242.699 79.5529 242.35 79.48 242.006 79.48H239.59C238.809 79.48 238.074 79.355 237.381 79.105C236.699 78.8446 236.1 78.4748 235.59 78.0008C235.059 77.5164 234.652 76.9487 234.361 76.2925C234.069 75.6414 233.923 74.9383 233.923 74.1883C233.923 73.4123 234.069 72.6675 234.361 71.9591C234.663 71.2404 235.074 70.6258 235.59 70.1258C236.116 69.5998 236.72 69.1987 237.402 68.9175C238.095 68.6258 238.824 68.48 239.59 68.48H244.902C245.402 68.48 245.782 68.5946 246.048 68.8133C246.324 69.0373 246.465 69.3498 246.465 69.7508C246.465 70.1987 246.324 70.5425 246.048 70.7925C245.782 71.0321 245.402 71.1466 244.902 71.1466H239.048C238.392 71.1779 237.824 71.4383 237.34 71.9383C237.1 72.1883 236.913 72.5008 236.777 72.8758C236.637 73.2404 236.569 73.6154 236.569 74.0008C236.569 74.4071 236.637 74.7821 236.777 75.1258C236.928 75.4748 237.131 75.7821 237.381 76.0425C237.631 76.3081 237.907 76.5112 238.215 76.6466C238.517 76.7873 238.829 76.855 239.152 76.855H241.694C242.486 76.855 243.236 76.9904 243.944 77.2508C244.652 77.5164 245.277 77.8914 245.819 78.3758C246.371 78.8758 246.798 79.4696 247.09 80.1466C247.392 80.8133 247.548 81.5425 247.548 82.3341C247.548 83.1154 247.392 83.8654 247.09 84.5841C246.798 85.2925 246.381 85.9175 245.84 86.4591C245.282 87.0008 244.657 87.4331 243.965 87.7508C243.267 88.0581 242.527 88.2091 241.736 88.2091Z" fill="#FDFDFD"/>
<path d="M27.9787 88.3966C26.9787 88.3966 26.0412 88.2091 25.1662 87.8341C24.3016 87.4487 23.5464 86.907 22.8953 86.2091C22.2391 85.5424 21.7287 84.7612 21.3537 83.8549C20.9891 82.9539 20.812 82.0008 20.812 81.0008V75.7716C20.812 74.7716 20.9839 73.8237 21.3328 72.9174C21.6922 72.0164 22.1922 71.2299 22.8328 70.5633C23.4683 69.8862 24.2183 69.3549 25.0828 68.9799C25.9422 68.5945 26.8745 68.3966 27.8745 68.3966C29.3433 68.3966 30.6297 68.7456 31.7287 69.4383C32.687 70.0529 33.4891 70.8862 34.1453 71.9383C34.3381 72.2195 34.437 72.5008 34.437 72.7924C34.437 73.1414 34.3016 73.4487 34.0412 73.7091C33.7756 73.9747 33.4578 74.1049 33.0828 74.1049C32.6349 74.1049 32.3172 73.9383 32.1245 73.6049C31.6506 72.7716 31.1297 72.1622 30.562 71.7716C29.8537 71.3029 28.9578 71.0633 27.8745 71.0633C27.2339 71.0633 26.6349 71.1883 26.0828 71.4383C25.5412 71.6779 25.0724 72.0112 24.687 72.4383C24.2964 72.8706 23.9995 73.3758 23.7912 73.9591C23.5828 74.532 23.4787 75.1362 23.4787 75.7716V81.0008C23.4787 81.6414 23.5881 82.2456 23.812 82.8133C24.0308 83.3862 24.3433 83.8862 24.7495 84.3133C25.1349 84.7612 25.6089 85.1049 26.1662 85.3549C26.7183 85.5945 27.3224 85.7091 27.9787 85.7091C29.0464 85.7091 29.9631 85.4539 30.7287 84.9383C31.3641 84.5112 31.9266 83.8706 32.4162 83.0216V80.2924H30.2078C29.8328 80.2924 29.5203 80.1674 29.2703 79.9174C29.0308 79.657 28.9162 79.3445 28.9162 78.9799C28.9162 78.6206 29.0412 78.3081 29.2912 78.0424C29.5412 77.782 29.8433 77.6466 30.2078 77.6466L33.5203 77.6674C33.8953 77.6674 34.2131 77.7924 34.4787 78.0424C34.7391 78.282 34.8745 78.5945 34.8745 78.9799V82.8341C34.8745 83.032 34.8537 83.2404 34.812 83.4591C34.7703 83.6674 34.7183 83.8289 34.6662 83.9383C33.9995 85.3289 33.0933 86.4122 31.9578 87.1883C30.7756 87.9956 29.4474 88.3966 27.9787 88.3966Z" fill="#FDFDFD"/>
<path d="M47.0558 88.2925C46.6808 88.2925 46.3579 88.1675 46.0975 87.9175C45.8319 87.6675 45.7017 87.3498 45.7017 86.9592V75.8342C45.7017 74.8342 45.8579 73.8863 46.1808 72.98C46.4985 72.079 46.9517 71.2925 47.535 70.6259C48.16 69.9331 48.8996 69.3967 49.7642 69.0217C50.6392 68.6363 51.6183 68.4384 52.7017 68.4384C53.811 68.4384 54.8162 68.6363 55.7225 69.0217C56.6392 69.3967 57.4152 69.9384 58.0558 70.6467C58.6808 71.3446 59.1496 72.1623 59.4725 73.105C59.8058 74.0373 59.9725 75.0373 59.9725 76.105V86.9592C59.9725 87.3342 59.8371 87.6571 59.5767 87.9175C59.311 88.1675 58.9933 88.2925 58.6183 88.2925C58.2277 88.2925 57.8996 88.1675 57.6392 87.9175C57.3735 87.6675 57.2433 87.3498 57.2433 86.9592V82.5009H48.4308V86.9592C48.4308 87.3498 48.2954 87.6675 48.035 87.9175C47.7694 88.1675 47.4412 88.2925 47.0558 88.2925ZM48.4308 79.7717H57.2433V76.1467C57.2433 74.6779 56.8319 73.4696 56.0142 72.5217C55.6235 72.079 55.1444 71.7404 54.5767 71.5009C54.0194 71.2665 53.4152 71.1467 52.7642 71.1467C51.4569 71.1467 50.41 71.579 49.6183 72.4384C48.8267 73.3134 48.4308 74.5165 48.4308 76.0425V79.7717Z" fill="#FDFDFD"/>
<path d="M72.2611 88.2091C71.8705 88.2091 71.5424 88.0841 71.282 87.8341C71.032 87.5737 70.907 87.2456 70.907 86.855V74.1883C70.907 73.3966 71.0528 72.6623 71.3445 71.98C71.6361 71.2873 72.0424 70.6779 72.5736 70.1466C73.0841 69.6206 73.6882 69.2091 74.3861 68.9175C75.0789 68.6258 75.8132 68.48 76.5945 68.48C77.4382 68.48 78.2403 68.6623 78.9903 69.0216C79.7403 69.3706 80.3914 69.8706 80.9486 70.5216C81.4747 69.8862 82.1049 69.3862 82.8445 69.0216C83.5945 68.6623 84.3966 68.48 85.2611 68.48C86.0216 68.48 86.7507 68.6258 87.4486 68.9175C88.157 69.2091 88.7716 69.6206 89.3028 70.1466C89.8289 70.6779 90.2403 71.2873 90.532 71.98C90.8236 72.6779 90.9695 73.4123 90.9695 74.1883V86.855C90.9695 87.2456 90.8341 87.5737 90.5736 87.8341C90.308 88.0841 89.9903 88.2091 89.6153 88.2091C89.2403 88.2091 88.9122 88.0841 88.6361 87.8341C88.3705 87.5737 88.2403 87.2456 88.2403 86.855V74.2925C88.2403 73.4591 87.9486 72.7508 87.3653 72.1675C86.808 71.5998 86.0997 71.3133 85.2403 71.3133C84.8236 71.3133 84.433 71.3914 84.0736 71.5425C83.7247 71.6987 83.4174 71.9123 83.157 72.1883C82.5841 72.7612 82.3028 73.4591 82.3028 74.2925V86.855C82.3028 87.23 82.1674 87.5529 81.907 87.8133C81.6414 88.0789 81.3132 88.2091 80.9278 88.2091C80.5528 88.2091 80.2299 88.0789 79.9695 87.8133C79.7039 87.5529 79.5736 87.23 79.5736 86.855V74.2508C79.5736 73.8654 79.4955 73.4904 79.3445 73.1258C79.1882 72.7664 78.9799 72.4487 78.7195 72.1675C78.1361 71.5998 77.4278 71.3133 76.5945 71.3133C76.1882 71.3133 75.8028 71.3914 75.4278 71.5425C75.0632 71.6987 74.7507 71.9071 74.4903 72.1675C73.907 72.7508 73.6153 73.4591 73.6153 74.2925V86.855C73.6153 87.2456 73.4799 87.5737 73.2195 87.8341C72.9539 88.0841 72.6361 88.2091 72.2611 88.2091Z" fill="#FDFDFD"/>
<path d="M112.96 88.2092H103.231C102.866 88.1831 102.569 88.0425 102.335 87.7925C102.111 87.5425 102.002 87.2404 102.002 86.8759V69.7509C102.002 69.3915 102.127 69.0842 102.377 68.8342C102.637 68.5738 102.96 68.4384 103.335 68.4384H112.96C113.335 68.4384 113.648 68.5738 113.898 68.8342C114.148 69.0842 114.273 69.3915 114.273 69.7509C114.273 70.1415 114.148 70.4696 113.898 70.73C113.648 70.98 113.335 71.105 112.96 71.105H104.648V76.855H110.71C111.085 76.855 111.398 76.98 111.648 77.23C111.898 77.48 112.023 77.7925 112.023 78.1675C112.023 78.5321 111.898 78.8342 111.648 79.0842C111.398 79.3342 111.085 79.4592 110.71 79.4592H104.648V85.5634H112.96C113.335 85.5634 113.648 85.6988 113.898 85.9592C114.148 86.2092 114.273 86.5217 114.273 86.8967C114.273 87.2873 114.148 87.605 113.898 87.855C113.648 88.0946 113.335 88.2092 112.96 88.2092Z" fill="#FDFDFD"/>
</svg>
